<svg width="102" height="102" viewBox="0 0 102 102" fill="none" xmlns="http://www.w3.org/2000/svg">
<g clip-path="url(#clip0_214_11)">
<path d="M74.2426 8.97366C71.618 11.5983 69.2133 14.443 67.0759 17.4763L66.4001 17.2562C62.5024 15.9832 58.4633 15.1974 54.3927 14.9302C53.1668 14.8359 48.5933 14.8359 47.1003 14.9302C42.5896 15.2288 39.132 15.9046 35.2029 17.272C35.0457 17.3348 34.9043 17.382 34.7628 17.4291C32.5468 14.4116 30.0793 11.5826 27.3604 8.98938C40.405 2.30988 55.6657 1.50833 69.3234 6.77336C70.785 7.32343 72.2152 7.96781 73.614 8.65934L74.2426 8.97366Z" fill="#989898"/>
<path d="M98.5717 68.5863C96.5914 74.2285 93.621 79.4621 89.7704 84.0199C87.6802 86.4716 85.3698 88.7191 82.8866 90.7622C77.0715 95.4458 70.282 98.7934 63.0367 100.554C55.0213 102.487 46.6601 102.487 38.6447 100.554C31.3837 98.7934 24.6099 95.4458 18.7948 90.7622C16.3116 88.7191 14.0013 86.4716 11.911 84.0199C0.830856 70.928 -2.53247 52.9484 3.10975 36.7447C4.17847 33.7428 5.51437 30.851 7.11745 28.1006C7.85612 26.8433 8.76769 25.4288 9.20775 24.8473C10.7165 31.3382 12.5711 37.0433 13.2626 39.1021C13.2154 39.2122 13.1526 39.3379 13.0897 39.4479C9.42777 46.8661 7.4475 54.0171 6.97601 61.6239C6.97601 61.7182 6.96028 61.8282 6.96028 61.9225C6.83455 64.2014 6.89742 65.2858 7.27461 66.716C8.45335 71.1952 12.0839 76.1302 17.7732 80.9709C27.0931 88.892 39.7292 94.6128 49.3005 95.2729C59.2805 95.9487 74.0068 90.1179 83.8139 81.5995C85.3541 80.2322 86.8 78.7863 88.1516 77.2461C89.1261 76.1145 90.572 74.1656 90.462 74.1656C90.4305 74.1656 90.462 74.1342 90.5248 74.1028C90.572 74.0713 90.6191 74.0242 90.5877 73.9927C90.572 73.977 90.6034 73.9299 90.6506 73.9142C90.6977 73.8984 90.7292 73.867 90.7134 73.8356C90.6977 73.8041 90.7134 73.7727 90.7763 73.757C90.8235 73.7413 90.8392 73.6941 90.8234 73.6627C90.8077 73.6313 90.8235 73.5998 90.8549 73.5998C90.8863 73.5998 90.9178 73.5527 90.9178 73.5213C90.9178 73.4898 90.9492 73.4427 90.9806 73.4427C91.012 73.4427 91.0435 73.4112 91.0435 73.3798C91.0906 73.2541 91.1692 73.1283 91.2478 73.0183C91.4836 72.6568 92.4265 70.9752 92.5523 70.6923C93.4481 68.6649 94.0139 66.8575 94.2811 65.0501C94.4068 64.1857 94.4854 62.5983 94.4225 62.2211C94.4068 62.1582 94.4068 62.0482 94.3911 61.8753C94.3597 61.561 94.344 61.0895 94.3125 60.618C94.2811 59.9108 94.2182 58.9206 94.1711 58.4334C93.4953 51.2981 91.6721 45.4673 88.2145 39.2907C88.0731 39.055 87.9473 38.8192 87.8688 38.6306C87.8373 38.5835 87.8216 38.5363 87.8059 38.5049C88.2931 37.0433 90.2891 30.9296 91.8765 23.9357L91.9079 23.9672L92.1436 24.2815C92.5523 24.8316 93.6367 26.4661 94.1239 27.2519C96.3399 30.8667 98.0688 34.7487 99.2946 38.8035C102.139 48.5635 101.904 58.9678 98.5717 68.5863Z" fill="#989898"/>
<path d="M78.1717 49.8051C78.1245 50.0566 77.3859 50.811 76.6472 51.361C74.4783 52.9484 70.5963 54.4257 66.6515 55.133C64.404 55.5416 62.1566 55.6045 61.4808 55.2744C61.0407 55.0544 60.9779 54.8815 61.135 54.3157C61.4651 53.137 62.5338 51.8482 64.1997 50.6381C65.0484 50.0251 68.4903 47.9348 70.0934 47.0547C72.7338 45.6088 74.8712 44.7444 76.3171 44.5401C76.7729 44.4772 77.323 44.4615 77.4959 44.5401C77.7788 44.6501 78.0931 45.4831 78.2188 46.4889C78.2817 47.0233 78.2503 49.3808 78.1717 49.8051Z" fill="black"/>
<path d="M41.1436 55.0073C41.0493 55.1959 40.5778 55.4002 40.0434 55.4787C39.5091 55.5573 37.8746 55.5102 36.9473 55.4002C33.6154 54.9601 30.0792 53.9385 27.5017 52.6812C26.0558 51.974 25.0185 51.2667 24.2484 50.4966L23.8083 50.0408L23.7612 49.4436C23.6826 48.4063 23.6983 46.7718 23.824 46.1903C23.9026 45.7031 24.0755 45.2316 24.3112 44.8073C24.437 44.6501 24.437 44.6501 25.0028 44.6501C25.6943 44.6501 26.2758 44.7601 27.2188 45.0587C29.1519 45.6559 32.028 47.1019 35.5328 49.2079C38.4247 50.9367 39.5091 51.7854 40.3421 52.9484C40.9079 53.6714 41.285 54.6929 41.1436 55.0073Z" fill="black"/>
<path d="M63.3982 76.8846C63.3982 76.9318 63.2096 77.6862 62.9739 78.582C62.7381 79.4778 62.5495 80.2008 62.5495 80.2322C62.3767 80.2479 62.2195 80.2637 62.0466 80.2479H61.5437L60.8522 81.8825C60.475 82.7783 60.1292 83.6113 60.082 83.737L59.9877 83.957L59.6577 83.4227L59.3277 82.8883V78.5348L59.2019 78.5663C58.9347 78.6291 57.0331 78.8806 56.2001 78.9592C52.7582 79.305 49.3005 79.2264 45.8743 78.7392C45.3243 78.6606 44.8528 78.5977 44.8371 78.6134C44.8213 78.6291 44.8371 79.635 44.8685 80.8766L44.9156 83.1083L44.6485 83.517C44.507 83.737 44.3656 83.9256 44.3656 83.9413C44.3184 83.9885 44.1612 83.737 43.7998 83.014C43.4069 82.2597 43.124 81.4581 42.9196 80.6251L42.8096 80.1694L42.3224 80.2008L41.8352 80.2479L41.7095 79.6664C41.6466 79.3521 41.568 78.8649 41.5366 78.5977L41.4895 78.0948L41.0808 77.7333C40.8451 77.529 40.6093 77.3247 40.5622 77.2932C40.4836 77.2304 40.4521 77.1204 40.4521 77.0261V76.8375L42.4167 76.8532L44.3813 76.8689L44.4441 77.0732L44.507 77.2775L45.1828 77.309C45.56 77.3247 46.7545 77.3561 47.8232 77.3875L49.7877 77.4347L50.2907 76.6489L50.8093 75.863H51.4694L51.4537 74.2285L51.438 72.594L50.5736 72.2168C47.7918 70.9909 46.1572 69.5922 45.5443 67.8948C45.4186 67.549 45.4186 67.4233 45.3871 65.8516C45.3714 64.2957 45.3714 64.1543 45.4814 63.8085C45.7015 63.0227 46.3144 62.4097 47.1002 62.2054C47.3674 62.1268 48.0747 62.1268 51.7837 62.1268L56.1529 62.1426L56.6401 62.3783C57.2216 62.6612 57.4888 62.8655 57.8189 63.3056C58.1961 63.8085 58.3061 64.2014 58.3061 65.1601C58.3061 66.5274 58.2118 67.7062 58.0703 68.1777C57.866 68.8221 57.5517 69.435 57.1588 69.9851C56.373 70.9909 54.9428 71.9968 53.6383 72.4526L53.2611 72.594L53.2768 74.2442L53.2925 75.8945L53.6383 75.9259L53.9841 75.9573L54.4556 76.6646L54.9113 77.3718H57.0173C58.1803 77.3718 59.2019 77.3875 59.2962 77.4033C59.4534 77.4347 59.4848 77.419 59.642 77.1518L59.8306 76.8689H61.638C62.9896 76.806 63.3982 76.8375 63.3982 76.8846Z" fill="black"/>
<path d="M55.0998 81.3952C54.8012 81.5681 54.5969 81.6467 54.5498 81.6153C54.5026 81.5995 54.2826 81.4109 54.0468 81.2381L53.6225 80.8923L53.1824 81.3638C52.2237 82.4011 52.1923 82.4482 51.9094 82.4639C51.4693 82.5111 51.375 82.4325 50.8407 81.631C50.5578 81.2223 50.3377 80.8766 50.3377 80.8766C50.3377 80.8766 50.1334 80.8451 49.8977 80.8294L49.4576 80.7823L49.2533 81.2066L49.049 81.631L48.6875 81.521C48.4046 81.4267 48.1217 81.3166 47.8546 81.1909L47.3831 80.9552V80.0593L51.5636 80.075L55.7442 80.0908L55.7599 80.5151C55.7756 81.018 55.7914 81.0023 55.0998 81.3952Z" fill="black"/>
<path d="M94.391 62.2211C94.3753 62.1583 94.3753 62.0483 94.3596 61.8754C90.5876 61.4667 79.8218 61.2153 69.8262 69.4664C69.8262 69.4664 66.6043 54.6929 51.5165 54.6929C36.4286 54.6929 30.8336 69.4664 30.8336 69.4664C22.3781 60.3666 11.0622 61.0267 6.97594 61.6239C6.97594 61.7182 6.96021 61.8282 6.96021 61.9225C6.83448 64.2014 6.89735 65.2858 7.27454 66.716C8.45328 71.1952 12.0838 76.1302 17.7732 80.9709C27.093 88.892 39.7291 94.6128 49.3004 95.2729C59.2804 95.9487 74.0067 90.1179 83.8138 81.5996C85.3541 80.2322 86.8 78.7863 88.1516 77.2461C89.126 76.1145 90.5719 74.1657 90.4619 74.1657C90.4305 74.1657 90.4619 74.1342 90.5248 74.1028C90.5719 74.0714 90.6191 74.0242 90.5876 73.9928C90.5719 73.9771 90.6034 73.9299 90.6505 73.9142C90.6977 73.8985 90.7291 73.867 90.7134 73.8356C90.6977 73.8042 90.7134 73.7727 90.7763 73.757C90.8234 73.7413 90.8391 73.6942 90.8234 73.6627C90.8077 73.6313 90.8234 73.5999 90.8548 73.5999C90.8863 73.5999 90.9177 73.5527 90.9177 73.5213C90.9177 73.4898 90.9491 73.4427 90.9806 73.4427C91.012 73.4427 91.0434 73.4113 91.0434 73.3798C91.0906 73.2541 91.1692 73.1284 91.2477 73.0184C91.4835 72.6569 92.4265 70.9752 92.5522 70.6923C93.448 68.6649 94.0138 66.8575 94.281 65.0501C94.3753 64.1857 94.4539 62.5983 94.391 62.2211ZM55.0998 81.3952C54.8012 81.5681 54.5969 81.6467 54.5497 81.6153C54.5026 81.5996 54.2826 81.411 54.0468 81.2381L53.6225 80.8923L53.1824 81.3638C52.2237 82.4011 52.1923 82.4483 51.9094 82.464C51.4693 82.5111 51.375 82.4325 50.8407 81.631C50.5578 81.2224 50.3377 80.8766 50.3377 80.8766C50.3377 80.8766 50.1334 80.8452 49.8977 80.8294L49.4576 80.7823L49.2533 81.2066L49.049 81.631L48.6875 81.521C48.4046 81.4267 48.1217 81.3167 47.8545 81.1909L47.383 80.9552V80.0593L51.5636 80.0751L55.7442 80.0908L55.7599 80.5151C55.7756 81.018 55.7913 81.0023 55.0998 81.3952ZM62.9581 78.5663C62.7223 79.4621 62.5337 80.1851 62.5337 80.2165C62.3608 80.2322 62.2037 80.2479 62.0308 80.2322H61.5279L60.8521 81.8825C60.4749 82.7783 60.1291 83.6113 60.0819 83.737L59.9876 83.957L59.6576 83.4227L59.3276 82.8883V78.5348L59.2018 78.5663C58.9346 78.6291 57.0329 78.8806 56.2 78.9592C52.7581 79.305 49.3004 79.2264 45.8742 78.7392C45.3242 78.6606 44.8527 78.5977 44.8369 78.6134C44.8212 78.6291 44.837 79.635 44.8684 80.8766L44.9155 83.1083L44.6484 83.517C44.5069 83.737 44.3655 83.9256 44.3655 83.9413C44.3183 83.9885 44.1611 83.737 43.7997 83.014C43.4068 82.2597 43.1239 81.4581 42.9195 80.6251L42.8095 80.1694L42.3223 80.2008L41.8351 80.2479L41.7094 79.6664C41.6465 79.3521 41.5679 78.8649 41.5365 78.5977L41.4893 78.0948L41.0807 77.7333C40.845 77.529 40.6092 77.3247 40.5621 77.2932C40.4835 77.2304 40.452 77.1204 40.452 77.0261V76.8375L42.4166 76.8532L44.3812 76.8689L44.444 77.0732L44.5069 77.2775L45.1827 77.309C45.5599 77.3247 46.7544 77.3561 47.8231 77.3875L49.7876 77.4347L50.2906 76.6489L50.8092 75.863H51.4693L51.4536 74.2285L51.4379 72.594L50.5735 72.2168C47.7916 70.9909 46.1571 69.5922 45.5442 67.8948C45.4185 67.549 45.4185 67.4233 45.387 65.8516C45.3713 64.2957 45.3713 64.1543 45.4813 63.8085C45.7014 63.0227 46.3143 62.4097 47.1001 62.2054C47.3673 62.1268 48.0746 62.1268 51.7836 62.1268L56.1528 62.1426L56.64 62.3783C57.2215 62.6612 57.4887 62.8655 57.8188 63.3056C58.196 63.8085 58.306 64.2014 58.306 65.1601C58.306 66.5274 58.2117 67.7062 58.0702 68.1777C57.8659 68.8221 57.5516 69.435 57.1587 69.9851C56.3729 70.9909 54.9426 71.9968 53.6382 72.4526L53.261 72.594L53.2767 74.2442L53.2924 75.8945L53.6382 75.9259L53.984 75.9573L54.4554 76.6646L54.9112 77.3718H57.0172C58.1802 77.3718 59.2018 77.3875 59.2961 77.4033C59.4533 77.4347 59.4847 77.419 59.6419 77.1518L59.8305 76.8689H61.6379C63.0366 76.8689 63.4453 76.8846 63.4453 76.9318C63.3981 76.916 63.1938 77.6862 62.9581 78.5663Z" fill="#E9E9E9"/>
<path d="M94.2654 60.618C94.2339 59.9108 94.1711 58.9206 94.1239 58.4334C93.4481 51.2981 91.625 45.4673 88.1674 39.2908C88.0259 39.055 87.9002 38.8193 87.8216 38.6307C87.7902 38.5835 87.7745 38.5364 87.7587 38.5049C88.246 37.0433 90.242 30.9296 91.8293 23.9357C93.9825 14.443 95.3498 3.34715 91.1692 0.0152506C91.1692 0.0152506 83.9397 -0.51911 74.2583 8.97365C71.6336 11.5983 69.229 14.443 67.0916 17.4763L66.4158 17.2562C62.5181 15.9832 58.4789 15.1974 54.4084 14.9302C53.1825 14.8359 48.609 14.8359 47.1159 14.9302C42.6053 15.2288 39.1477 15.9046 35.2185 17.272C35.0614 17.3348 34.9199 17.382 34.7785 17.4291C32.5624 14.4116 30.095 11.5826 27.376 8.98937C17.3017 -0.550542 9.80498 -0.000466831 9.80498 -0.000466831C5.37293 3.44144 6.88172 15.0402 9.17632 24.8473C10.6851 31.3382 12.5396 37.0433 13.2312 39.1022C13.184 39.2122 13.1212 39.3379 13.0583 39.4479C9.39636 46.8661 7.41607 54.0171 6.94458 61.6239C11.0466 61.0266 22.3467 60.3508 30.8179 69.4664C30.8179 69.4664 36.413 54.6929 51.5008 54.6929C66.5886 54.6929 69.8105 69.4664 69.8105 69.4664C79.8062 61.2153 90.572 61.4824 94.344 61.8753C94.3282 61.561 94.2968 61.0895 94.2654 60.618ZM16.2016 33.177C16.2016 33.177 10.3236 18.4821 11.8324 10.0895C12.0839 8.67504 12.5554 7.43343 13.294 6.49044C13.294 6.49044 19.9578 7.15053 30.7079 19.0951C30.7079 19.0951 28.6648 20.0852 25.9301 22.1912C25.9301 22.1912 25.9144 22.2069 25.8987 22.2069C22.9282 24.4858 19.1249 28.1006 16.2016 33.177ZM41.1436 55.0072C41.0494 55.1958 40.5779 55.4001 40.0435 55.4787C39.5091 55.5573 37.8746 55.5102 36.9474 55.4001C33.6155 54.9601 30.0793 53.9385 27.5018 52.6812C26.0558 51.974 25.0185 51.2667 24.2484 50.4966L23.8084 50.0408L23.7612 49.4436C23.6826 48.4063 23.6984 46.7718 23.8241 46.1903C23.9027 45.7031 24.0755 45.2316 24.3113 44.8072C24.437 44.6501 24.437 44.6501 25.0028 44.6501C25.6944 44.6501 26.2759 44.7601 27.2188 45.0587C29.152 45.6559 32.0281 47.1018 35.5329 49.2079C38.4247 50.9367 39.5091 51.7854 40.3421 52.9484C40.9079 53.6713 41.2851 54.6929 41.1436 55.0072ZM78.1717 49.8051C78.1245 50.0565 77.3859 50.8109 76.6472 51.361C74.4783 52.9484 70.5964 54.4257 66.6515 55.133C64.4041 55.5416 62.1566 55.6045 61.4808 55.2744C61.0407 55.0544 60.9779 54.8815 61.135 54.3157C61.4651 53.137 62.5338 51.8482 64.1997 50.6381C65.0484 50.0251 68.4903 47.9348 70.0934 47.0547C72.7338 45.6088 74.8712 44.7444 76.3172 44.5401C76.7729 44.4772 77.323 44.4615 77.4959 44.5401C77.7788 44.6501 78.0931 45.483 78.2188 46.4889C78.2817 47.0233 78.2503 49.3807 78.1717 49.8051ZM75.5628 22.1912L75.5313 22.1755C72.891 20.0695 70.9107 19.0793 70.9107 19.0793C81.2993 7.13482 87.7273 6.47473 87.7273 6.47473C88.4346 7.43343 88.8903 8.65932 89.1418 10.0738C90.6034 18.4664 84.9298 33.177 84.9298 33.177C82.5566 28.9493 79.3661 25.2088 75.5628 22.1912Z" fill="#6E1F1F"/>
<path d="M89.1575 10.0738C87.9316 9.91664 82.1322 9.88521 75.5627 22.1912L75.5313 22.1755C72.8909 20.0695 70.9106 19.0794 70.9106 19.0794C81.2992 7.13482 87.7273 6.47473 87.7273 6.47473C88.4502 7.43344 88.906 8.65932 89.1575 10.0738Z" fill="#A4A4A4"/>
<path d="M84.9455 33.1771C82.5566 28.9336 79.3819 25.2088 75.5627 22.1912C82.1322 9.88523 87.9159 9.91666 89.1575 10.0738C90.6191 18.4821 84.9455 33.1771 84.9455 33.1771Z" fill="#585858"/>
<path d="M89.3932 10.1209C89.3146 10.1052 89.2361 10.0895 89.1575 10.0738L89.3932 10.1209Z" fill="#585858"/>
<path d="M30.7081 19.0794C30.7081 19.0794 28.665 20.0695 25.9303 22.1755C25.9303 22.1755 25.9146 22.1912 25.8989 22.1912C19.0936 9.86949 13.1056 9.91664 11.8169 10.0738C12.0684 8.65932 12.5399 7.41772 13.2785 6.47473C13.2943 6.47473 19.958 7.13482 30.7081 19.0794Z" fill="#A4A4A4"/>
<path d="M25.9146 22.1912C22.9285 24.4858 19.1251 28.0849 16.2018 33.1771C16.2018 33.1771 10.3238 18.4821 11.8326 10.0738C13.1057 9.91666 19.1094 9.88523 25.9146 22.1912Z" fill="#585858"/>
<path d="M11.8325 10.0738C11.7539 10.0895 11.6596 10.1052 11.5811 10.1209L11.8325 10.0738Z" fill="#585858"/>
<path d="M69.0404 41.3339C69.0404 41.3339 64.0112 41.6482 64.6398 37.7191C65.2685 33.79 69.1976 33.3185 70.2978 33.4757C71.3979 33.6328 75.7985 35.2045 75.0127 38.5049C74.2269 41.8054 73.1267 41.1767 72.4981 41.3339C71.8694 41.4911 69.0404 41.3339 69.0404 41.3339Z" fill="#E9E9E9"/>
<path d="M31.9494 41.3339C31.9494 41.3339 26.9201 41.6482 27.5488 37.7191C28.1774 33.79 32.1065 33.3185 33.2067 33.4757C34.3069 33.6328 38.7075 35.2045 37.9216 38.5049C37.1358 41.8054 36.0357 41.1767 35.407 41.3339C34.7784 41.4911 31.9494 41.3339 31.9494 41.3339Z" fill="#E9E9E9"/>
</g>
<defs>
<clipPath id="clip0_214_11">
<rect width="102" height="102" fill="white"/>
</clipPath>
</defs>
</svg>
